<svg width="44" height="54" viewBox="0 0 44 54" fill="none" xmlns="http://www.w3.org/2000/svg">
<path d="M31.484 33.9808C30.9294 33.7119 30.2929 33.6654 29.7051 33.8508C29.1172 34.0362 28.6226 34.4396 28.3227 34.9781C28.0834 35.367 27.844 35.746 27.5947 36.1149C27.167 36.7557 26.7077 37.3748 26.2185 37.9699C25.6954 38.6031 25.0389 39.113 24.2958 39.463C23.5528 39.8131 22.7416 39.9945 21.9202 39.9945C21.0989 39.9945 20.2877 39.8131 19.5446 39.463C18.8016 39.113 18.1451 38.6031 17.622 37.9699C17.1433 37.3715 16.6846 36.7432 16.2458 36.095C14.0037 32.644 12.4557 28.7892 11.6883 24.7461C11.233 22.5304 10.9463 20.2835 10.8306 18.0245C10.7545 16.5746 11.1961 15.1449 12.0766 13.9904C12.957 12.8359 14.2191 12.0319 15.6374 11.7218H15.7172C17.7694 11.2894 19.8485 10.9962 21.9402 10.8442C24.0316 10.9933 26.1107 11.2832 28.1631 11.7118H28.2329C29.6494 12.0263 30.9082 12.8335 31.7849 13.9897C32.6616 15.1458 33.0992 16.5757 33.0198 18.0245C33.0198 18.4633 33.0198 18.9121 32.9301 19.3808C32.9 19.6995 32.9336 20.021 33.029 20.3266C33.1244 20.6322 33.2796 20.9158 33.4857 21.1608C33.6917 21.4059 33.9445 21.6074 34.2292 21.7538C34.5139 21.9002 34.8249 21.9885 35.144 22.0136L41.0478 22.4823C41.365 22.5096 41.6844 22.4739 41.9877 22.3772C42.291 22.2806 42.5722 22.1249 42.815 21.9191C43.0579 21.7133 43.2576 21.4615 43.4028 21.1782C43.5479 20.8949 43.6356 20.5857 43.6607 20.2684C43.9416 16.7958 43.9182 13.3054 43.5909 9.83692C43.5093 9.0241 43.2661 8.23577 42.8756 7.51821C42.4852 6.80066 41.9553 6.16833 41.3171 5.65836C35.7723 1.28036 25.67 0.303032 22.738 0.0736602C22.1969 0.033786 21.6536 0.033786 21.1125 0.0736602C18.1905 0.303032 8.07815 1.28036 2.53334 5.64839C1.8949 6.15733 1.36544 6.78958 0.976516 7.50746C0.587591 8.22535 0.347155 9.01418 0.269537 9.82695C-0.458469 17.1868 -1.12664 41.3107 19.1578 53.1782C19.9979 53.6679 20.9528 53.926 21.9252 53.926C22.8976 53.926 23.8526 53.6679 24.6926 53.1782C30.1506 50.0206 34.6832 45.4846 37.8366 40.0242C38.1594 39.4672 38.2483 38.805 38.0838 38.1825C37.9193 37.5601 37.5149 37.0282 36.959 36.7033L36.8095 36.6236L31.484 33.9808Z" fill="#FFC247"/>
</svg>
