<svg width="36" height="37" viewBox="0 0 36 37" fill="none" xmlns="http://www.w3.org/2000/svg">
<path d="M32.14 0.484375H3.86C2.83626 0.484375 1.85446 0.891052 1.13057 1.61494C0.406677 2.33883 0 3.32064 0 4.34437L0 32.6244C0 33.6481 0.406677 34.6299 1.13057 35.3538C1.85446 36.0777 2.83626 36.4844 3.86 36.4844H32.14C33.1637 36.4844 34.1455 36.0777 34.8694 35.3538C35.5933 34.6299 36 33.6481 36 32.6244V4.34437C36 3.32064 35.5933 2.33883 34.8694 1.61494C34.1455 0.891052 33.1637 0.484375 32.14 0.484375V0.484375ZM28.21 13.2444V13.9244C28.2245 15.8806 27.8534 17.8205 27.1178 19.6333C26.3823 21.446 25.2967 23.096 23.9232 24.489C22.5497 25.8821 20.9151 26.9908 19.1129 27.7518C17.3107 28.5128 15.3762 28.9113 13.42 28.9244C13.3504 28.9344 13.2796 28.9344 13.21 28.9244C10.3425 28.932 7.53362 28.1126 5.12 26.5644C5.54159 26.6126 5.96566 26.636 6.39 26.6344C8.7854 26.6496 11.1153 25.853 13 24.3744C11.8868 24.3706 10.8035 24.0144 9.90526 23.3569C9.00703 22.6994 8.34007 21.7743 8 20.7144C8.78802 20.8516 9.59634 20.8175 10.37 20.6144C9.19123 20.3671 8.13304 19.7227 7.37223 18.789C6.61143 17.8553 6.19411 16.6888 6.19 15.4844V15.4144C6.9148 15.8246 7.72769 16.0544 8.56 16.0844C7.83928 15.6012 7.24873 14.9479 6.84059 14.1822C6.43245 13.4165 6.2193 12.5621 6.22 11.6944C6.21338 10.76 6.45865 9.84115 6.93 9.03438C8.261 10.6513 9.91584 11.9716 11.788 12.9102C13.6601 13.8489 15.7081 14.3851 17.8 14.4844C17.5339 13.3514 17.6496 12.1622 18.1291 11.1018C18.6086 10.0413 19.425 9.16902 20.4514 8.62045C21.4778 8.07189 22.6567 7.87782 23.8048 8.06841C24.9529 8.25901 26.0059 8.82359 26.8 9.67437C27.9693 9.46882 29.0953 9.06645 30.13 8.48438C29.7383 9.69981 28.9171 10.7308 27.82 11.3844C28.8548 11.2595 29.8656 10.9832 30.82 10.5644C30.1094 11.6002 29.2266 12.5066 28.21 13.2444Z" fill="white"/>
</svg>
