<svg width="131" height="83" viewBox="0 0 131 83" fill="none" xmlns="http://www.w3.org/2000/svg">
<g clip-path="url(#clip0_30_8350)">
<path fill-rule="evenodd" clip-rule="evenodd" d="M113.796 46.3543C111.496 48.3143 108.556 49.3843 105.536 49.3543C99.2556 49.3543 95.1855 44.9043 95.1855 38.0143C95.1855 34.0743 96.0056 31.4643 97.9256 29.3243C99.6456 27.3443 102.186 26.2543 104.806 26.3743C107.136 26.3043 109.406 27.1543 111.126 28.7243C113.126 30.7743 114.036 33.7243 114.036 38.3043V39.6343H101.396V39.8043C101.396 43.1843 103.056 45.1143 106.016 45.1143C108.066 45.0743 110.046 44.3043 111.576 42.9343L113.796 46.3543ZM108.126 35.4443V35.2043C108.246 34.0643 108.006 32.9143 107.446 31.9143C106.906 31.0543 105.936 30.5643 104.926 30.6343C102.746 30.6343 101.506 32.3443 101.506 35.3843V35.4643L108.126 35.4443Z" fill="#02033B"/>
<path fill-rule="evenodd" clip-rule="evenodd" d="M128.544 30.8244H124.864V41.8244C124.864 44.6044 125.374 45.3344 127.344 45.3344C128.044 45.2944 128.734 45.1444 129.394 44.9144L130.124 48.3344C128.654 48.9844 127.064 49.3244 125.454 49.3344C122.554 49.3344 120.234 48.0544 119.554 46.1344C119.194 45.0444 119.064 43.8844 119.174 42.7444V30.8144H116.994V26.8844H119.174C119.134 25.1544 119.204 23.4244 119.384 21.7044L125.204 20.2544C124.984 22.4544 124.864 24.6744 124.864 26.8844H130.004L128.544 30.8244Z" fill="#02033B"/>
<path fill-rule="evenodd" clip-rule="evenodd" d="M86.495 19.0543L86.625 31.2043C86.625 33.2043 86.875 37.0643 87.095 39.3843C86.235 36.4943 85.145 33.6643 83.845 30.9443L78.125 19.0443H71.515V32.5543L56.435 0.204346L0.125 26.4643L26.375 82.7743L82.685 56.5143L77.235 44.8343L77.125 36.0843C77.125 33.6043 77.035 30.0843 76.825 27.6543C77.385 29.4943 79.185 33.6543 80.825 37.4143L85.925 48.7943H92.165V19.0543H86.495ZM54.205 48.4843H49.405V42.0843H52.745C57.255 42.0843 61.105 39.6143 61.105 33.9543C61.105 28.7543 57.675 25.8243 52.825 25.8243H48.595V40.3343L43.125 48.4843H11.725L27.125 25.8343H13.045L17.325 19.4343H40.555L25.255 42.0843H41.045V19.4343H54.205C62.225 19.1443 68.965 25.4043 69.255 33.4243C69.545 41.4443 63.285 48.1843 55.265 48.4743C55.125 48.4743 54.975 48.4743 54.835 48.4743H54.205" fill="#02033B"/>
</g>
<defs>
<clipPath id="clip0_30_8350">
<rect width="130" height="82.56" fill="white" transform="translate(0.125 0.204346)"/>
</clipPath>
</defs>
</svg>
